<?xml version="1.0" encoding="UTF-8" standalone="no"?>
<!DOCTYPE svg PUBLIC "-//W3C//DTD SVG 1.1//EN" "http://www.w3.org/Graphics/SVG/1.1/DTD/svg11.dtd">
<svg width="100%" height="100%" viewBox="0 0 1512 256" version="1.1" xmlns="http://www.w3.org/2000/svg" xmlns:xlink="http://www.w3.org/1999/xlink" xml:space="preserve" xmlns:serif="http://www.serif.com/" style="fill-rule:evenodd;clip-rule:evenodd;stroke-linejoin:round;stroke-miterlimit:2;">
    <g transform="matrix(1,0,0,1.00441,-188.058,-104.578)">
        <text x="594.093px" y="301.873px" style="font-family:'FuturaPT-Medium', 'Futura PT', sans-serif;font-weight:450;font-size:215.716px;">Cr<tspan x="806.143px " y="301.873px ">y</tspan>ptoVision</text>
    </g>
    <g transform="matrix(3.87891,0,0,3.87891,-84.8265,-128.005)">
        <path d="M43.811,65.399L64,81.407L84.228,65.399L63.981,50.449L43.811,65.399ZM65.2,59.424L71.231,64.199C71.716,64.578 72,64.784 72,65.399C72,65.966 71.759,66.22 71.338,66.599L65.2,71.399C64.445,72.079 63.557,72.077 62.8,71.399L56.666,66.599C56.243,66.22 56,65.968 56,65.399C56,64.773 56.294,64.577 56.794,64.199L62.794,59.405C63.515,58.859 64.488,58.867 65.2,59.424Z" style="fill:url(#_Linear1);fill-rule:nonzero;"/>
        <path d="M105.421,64.799L65.176,33.382C64.486,32.88 63.498,32.872 62.8,33.364L22.58,64.814C22.048,65.189 21.869,65.354 21.869,66.005C21.869,66.598 22.132,66.804 22.588,67.184L62.779,98.537C63.519,99.153 64.461,99.152 65.2,98.534L105.416,67.199C105.869,66.819 106.132,66.591 106.132,65.999C106.132,65.36 105.938,65.175 105.421,64.799ZM88.774,66.419L65.661,85.541C64.926,86.149 63.852,86.151 63.115,85.544L39.229,65.881C38.768,65.501 38.5,64.934 38.5,64.337C38.5,63.683 38.821,63.069 39.358,62.695L62.858,46.358C63.552,45.876 64.48,45.883 65.167,46.376L88.667,63.254C89.19,63.629 89.5,64.235 89.5,64.878C89.5,65.474 89.234,66.04 88.774,66.419L88.774,66.419Z" style="fill:url(#_Linear2);fill-rule:nonzero;"/>
    </g>
    <defs>
        <linearGradient id="_Linear1" x1="0" y1="0" x2="1" y2="0" gradientUnits="userSpaceOnUse" gradientTransform="matrix(208.463,0,0,191.334,-39.8276,65.3969)"><stop offset="0" style="stop-color:rgb(238,162,162);stop-opacity:1"/><stop offset="0.2" style="stop-color:rgb(187,193,191);stop-opacity:1"/><stop offset="0.4" style="stop-color:rgb(87,198,225);stop-opacity:1"/><stop offset="0.8" style="stop-color:rgb(180,159,218);stop-opacity:1"/><stop offset="1" style="stop-color:rgb(122,197,216);stop-opacity:1"/></linearGradient>
        <linearGradient id="_Linear2" x1="0" y1="0" x2="1" y2="0" gradientUnits="userSpaceOnUse" gradientTransform="matrix(208.463,0,0,191.334,-39.8276,65.3969)"><stop offset="0" style="stop-color:rgb(238,162,162);stop-opacity:1"/><stop offset="0.2" style="stop-color:rgb(187,193,191);stop-opacity:1"/><stop offset="0.4" style="stop-color:rgb(87,198,225);stop-opacity:1"/><stop offset="0.8" style="stop-color:rgb(180,159,218);stop-opacity:1"/><stop offset="1" style="stop-color:rgb(122,197,216);stop-opacity:1"/></linearGradient>
    </defs>
</svg>
